<?xml version="1.0" encoding="UTF-8" standalone="no"?>
        <svg 
    viewBox="8.7158203125 -86.0595703125 444.873046875 57.2021484375"
    width="436.1572265625"
    height="143.26171875"
   xmlns="http://www.w3.org/2000/svg"
   xmlns:svg="http://www.w3.org/2000/svg">
   <path d="M96.17 0.73L96.17-15.31L55.37-15.31L55.37 0.73L96.17 0.73ZM55.37-19.48L96.17-19.48L96.17-34.50L55.37-34.50L55.37-19.48ZM109.79-54.13L109.79-70.53L99.90-70.53L99.90-54.13L109.79-54.13ZM99.90-74.71L109.79-74.71L109.79-90.75L99.90-90.75L99.90-74.71ZM50.39-70.53L40.36-70.53L40.36-54.13L50.39-54.13L50.39-70.53ZM40.36-90.75L40.36-74.71L50.39-74.71L50.39-90.75L40.36-90.75ZM79.61-70.53L70.39-70.53L70.39-54.13L79.61-54.13L79.61-70.53ZM70.39-90.75L70.39-74.71L79.61-74.71L79.61-90.75L70.39-90.75ZM9.89-106.35L8.72-110.52L50.39-110.52L50.39-128.10L75.15-125.98Q74.93-124.51 73.97-123.52Q73.02-122.53 70.39-122.09L70.39-122.09L70.39-110.52L79.61-110.52L79.61-128.10L104.88-125.98Q104.59-124.51 103.60-123.52Q102.61-122.53 99.90-122.09L99.90-122.09L99.90-110.52L115.65-110.52L125.68-122.97Q125.68-122.97 127.55-121.62Q129.42-120.26 132.31-118.07Q135.21-115.87 138.39-113.42Q141.58-110.96 144.14-108.76L144.14-108.76Q143.48-106.35 139.97-106.35L139.97-106.35L99.90-106.35L99.90-94.92L108.33-94.92L117.33-105.03L136.38-90.60Q135.64-89.72 134.18-88.81Q132.71-87.89 130.37-87.45L130.37-87.45L130.37-49.51Q130.30-49.00 127.44-47.90Q124.58-46.80 120.63-45.89Q116.67-44.97 113.38-44.97L113.38-44.97L109.79-44.97L109.79-49.95L40.36-49.95L40.36-46.95Q40.36-46.44 38.96-45.26L38.96-45.26L56.54-38.67L94.63-38.67L104.08-49.22L123.78-34.35Q123.05-33.47 121.66-32.48Q120.26-31.49 117.92-31.05L117.92-31.05L117.92 8.42Q117.85 8.94 114.77 10.03Q111.69 11.13 107.52 12.08Q103.34 13.04 99.90 13.04L99.90 13.04L96.17 13.04L96.17 4.98L55.37 4.98L55.37 7.62Q55.37 8.64 52.62 10.22Q49.88 11.79 45.67 13.04Q41.46 14.28 37.06 14.28L37.06 14.28L34.06 14.28L34.06-42.92Q31.71-41.97 28.89-41.38Q26.07-40.80 23.22-40.80L23.22-40.80L20.43-40.80L20.43-103.20L41.67-94.92L50.39-94.92L50.39-106.35L9.89-106.35ZM70.39-106.35L70.39-94.92L79.61-94.92L79.61-106.35L70.39-106.35ZM197.97-61.23L197.97-61.23L200.10-61.23Q203.83-50.98 201.78-43.98Q199.73-36.99 194.97-34.64L194.97-34.64Q191.97-33.11 188.01-34.02Q184.06-34.94 182.67-38.53L182.67-38.53Q181.20-29.30 178.02-20.14Q174.83-10.99 169.08-2.56Q163.33 5.86 154.17 12.89L154.17 12.89L152.86 11.87Q158.42-0.15 160.80-13.99Q163.18-27.83 163.73-42.22Q164.28-56.62 164.28-70.17L164.28-70.17L164.28-119.09L187.50-111.18L217.53-111.18L217.53-128.83L243.16-126.93Q243.02-125.46 241.96-124.37Q240.89-123.27 237.74-122.68L237.74-122.68L237.74-111.18L267.48-111.18L277.37-124.66Q277.37-124.66 279.16-123.16Q280.96-121.66 283.70-119.31Q286.45-116.97 289.45-114.29Q292.46-111.62 294.87-109.35L294.87-109.35Q294.43-106.93 290.70-106.93L290.70-106.93L251.88-106.93L251.88-96.61L262.35-96.61L270.63-105.18L287.70-92.72Q287.26-91.99 286.12-91.33Q284.99-90.67 283.23-90.31L283.23-90.31L283.23-76.98Q283.23-76.46 281.69-75.73L281.69-75.73L296.85-61.67Q295.24-60.06 290.99-59.84L290.99-59.84Q288.50-58.52 285.06-57.28Q281.62-56.03 278.10-55.08L278.10-55.08Q283.23-51.93 284.51-47.97Q285.79-44.02 284.18-40.76Q282.57-37.50 278.98-36.25Q275.39-35.01 270.78-37.35L270.78-37.35Q268.58-43.07 264.04-49.15Q259.50-55.22 255.32-59.25L255.32-59.25L256.49-60.13Q260.89-60.06 264.48-59.51Q268.07-58.96 270.92-58.23L270.92-58.23L271.66-63.57L240.75-63.57Q244.78-61.74 245.84-58.89Q246.90-56.03 245.62-53.43Q244.34-50.83 241.44-49.73Q238.55-48.63 234.74-50.24L234.74-50.24Q233.86-52.37 232.21-54.68Q230.57-56.98 228.74-59.11L228.74-59.11Q228.00-56.69 224.56-56.25L224.56-56.25L224.56-48.93Q224.56-47.75 225.11-47.35Q225.66-46.95 228.15-46.95L228.15-46.95L237.60-46.95Q239.94-46.95 242.18-46.98Q244.41-47.02 245.58-47.09L245.58-47.09Q247.92-47.09 249.17-48.12L249.17-48.12Q250.20-49.07 251.66-51.12Q253.13-53.17 254.74-56.40L254.74-56.40L256.20-56.40L256.79-48.12Q260.16-46.80 261.25-45.34Q262.35-43.87 262.35-41.82L262.35-41.82Q262.35-39.04 260.74-37.35Q259.13-35.67 255.32-34.79L255.32-34.79L271.80-19.63Q271.00-18.53 269.64-18.09Q268.29-17.65 265.50-17.43L265.50-17.43Q260.74-12.23 255.18-7.98L255.18-7.98Q264.92-7.03 275.39-7.03Q285.86-7.03 296.26-7.47L296.26-7.47L296.26-5.57Q290.41-3.44 287.15 1.61Q283.89 6.67 282.93 13.92L282.93 13.92Q269.53 12.45 257.78 9.81Q246.02 7.18 236.13 2.56L236.13 2.56Q222.36 8.42 205.81 11.17Q189.26 13.92 171.02 14.43L171.02 14.43L170.43 12.45Q185.38 9.74 198.85 5.38Q212.33 1.03 223.02-5.27L223.02-5.27Q220.46-7.18 218.12-9.34Q215.77-11.50 213.72-13.92L213.72-13.92Q206.10-9.67 196.62-5.86Q187.13-2.05 176.07 0.88L176.07 0.88L175.20-0.59Q188.01-7.91 197.17-17.36Q206.32-26.81 211.52-35.08L211.52-35.08Q208.59-36.47 207.71-39.26Q206.84-42.04 206.84-46.66L206.84-46.66L206.84-61.52L227.86-59.84L224.12-63.57L184.50-63.57Q184.42-59.55 184.24-55.30Q184.06-51.05 183.62-46.80L183.62-46.80Q185.23-49.07 188.67-50.54L188.67-50.54Q191.82-51.78 194.90-54.82Q197.97-57.86 197.97-61.23ZM199.22-106.93L184.50-106.93L184.50-96.61L199.22-96.61L199.22-106.93ZM232.98-106.93L218.12-106.93L218.12-96.61L232.98-96.61L232.98-106.93ZM199.22-92.43L184.50-92.43L184.50-80.13L199.22-80.13L199.22-92.43ZM263.67-75.88L184.50-75.88L184.50-70.17L184.50-67.82L270.26-67.82L275.83-73.32Q273.71-72.66 271.44-72.25Q269.17-71.85 267.11-71.85L267.11-71.85L263.67-71.85L263.67-75.88ZM263.67-80.13L263.67-92.43L251.88-92.43L251.88-80.13L263.67-80.13ZM232.98-92.43L218.12-92.43L218.12-80.13L232.98-80.13L232.98-92.43ZM243.02-25.34L253.34-34.35Q247.05-33.47 235.33-33.47L235.33-33.47L226.68-33.47L237.45-29.08Q236.87-27.76 235.36-27.06Q233.86-26.37 231.15-26.88L231.15-26.88L229.61-25.34L243.02-25.34ZM241.92-21.17L241.92-21.17L224.56-21.17L218.55-16.92Q224.78-13.70 232.62-11.72L232.62-11.72Q235.33-13.92 237.67-16.22Q240.01-18.53 241.92-21.17ZM325.49-120.63L325.49-120.63L327.32-120.63Q328.64-117.55 329.55-114.66Q330.47-111.77 331.05-109.06L331.05-109.06L363.43-109.06L363.43-128.39L391.33-126.42Q391.26-124.88 390.20-123.78Q389.14-122.68 385.99-122.09L385.99-122.09L385.99-109.06L416.97-109.06L427.22-119.24L444.87-102.61Q443.99-101.59 442.71-101.22Q441.43-100.85 439.01-100.63L439.01-100.63Q435.50-98.22 430.74-95.58Q425.98-92.94 420.89-90.56Q415.80-88.18 411.33-86.57L411.33-86.57L410.23-87.60Q412.13-91.11 414.04-95.91Q415.94-100.71 417.33-104.88L417.33-104.88L357.13-104.88L384.16-95.87Q383.72-94.41 382.14-93.53Q380.57-92.65 377.86-92.87L377.86-92.87Q376.25-89.72 374.67-86.68Q373.10-83.64 371.41-80.86L371.41-80.86L416.38-80.86L426.27-93.16Q426.27-93.16 429.42-90.86Q432.57-88.55 436.85-85.25Q441.14-81.96 444.58-79.03L444.58-79.03Q443.92-76.68 440.26-76.68L440.26-76.68L368.85-76.68Q366.80-73.54 364.78-70.61Q362.77-67.68 360.57-64.97L360.57-64.97L364.82-63.43L398.73-63.43L408.03-73.97L427.51-59.11Q426.86-58.23 425.35-57.24Q423.85-56.25 421.51-55.81L421.51-55.81L421.51-8.57Q421.51-2.05 419.71 2.67Q417.92 7.40 412.24 10.25Q406.57 13.11 394.92 14.14L394.92 14.14Q394.48 9.16 393.64 5.64Q392.80 2.12 390.89-0.15L390.89-0.15Q388.84-2.42 385.91-4.17Q382.98-5.93 376.68-7.03L376.68-7.03L376.68-8.86Q376.68-8.86 379.17-8.72Q381.67-8.57 385.25-8.35Q388.84-8.13 392.18-7.95Q395.51-7.76 397.19-7.76L397.19-7.76Q400.20-7.76 400.20-10.77L400.20-10.77L400.20-22.49L362.70-22.49L362.70 8.13Q362.70 9.23 358.19 11.76Q353.69 14.28 345.63 14.28L345.63 14.28L341.67 14.28L341.67-45.26Q333.03-38.01 323.40-32.41Q313.77-26.81 303.30-22.49L303.30-22.49L301.98-23.88Q313.77-33.11 325.05-46.62Q336.33-60.13 344.97-76.68L344.97-76.68L307.76-76.68L306.59-80.86L347.09-80.86Q349.88-86.57 352.33-92.58Q354.79-98.58 356.69-104.88L356.69-104.88L331.49-104.88Q332.08-98.00 329.99-93.09Q327.91-88.18 324.32-85.99L324.32-85.99Q321.75-84.30 318.53-84.38Q315.31-84.45 312.60-86.17Q309.89-87.89 308.86-91.19L308.86-91.19Q307.40-95.95 309.70-99.50Q312.01-103.05 316.04-104.88L316.04-104.88Q319.34-106.86 322.60-111.25Q325.85-115.65 325.49-120.63ZM400.20-26.73L400.20-41.24L362.70-41.24L362.70-26.73L400.20-26.73ZM362.70-45.48L400.20-45.48L400.20-59.25L362.70-59.25L362.70-45.48Z"/>
    </svg>
        