<svg width="240" height="240" version="1.1" xmlns="http://www.w3.org/2000/svg" xmlns:xlink="http://www.w3.org/1999/xlink"><path d="M123.60 41.04L123.60 41.04Q119.04 45.12 111.84 39.60L111.84 39.60Q107.28 36.24 106.08 35.52L106.08 35.52L96.48 28.80Q94.08 26.40 94.08 23.04L94.08 23.04L96.24 22.08Q114.48 22.08 120.72 26.64L120.72 26.64Q125.76 35.76 123.60 41.04ZM201.36 58.32L202.80 60.48L202.32 61.20L178.08 70.56Q175.92 71.52 174 72.48L174 72.48Q167.04 76.56 163.44 76.56L163.44 76.56Q163.68 73.20 167.76 63.36L167.76 63.36Q170.16 57.84 170.16 53.76L170.16 53.76Q167.04 50.64 156.48 51.84L156.48 51.84L154.32 52.08Q114.96 56.16 91.68 60.48L91.68 60.48L65.28 66.96Q61.68 67.68 58.56 67.92L58.56 67.92L51.60 67.20Q49.92 67.68 49.92 69.84L49.92 69.84L42.24 87.84Q39.60 92.88 36 96.00L36 96.00Q29.04 93.12 28.32 80.64L28.32 80.64Q28.32 78.24 33.84 71.76L33.84 71.76Q42.72 61.44 42.72 50.88L42.72 50.88L46.32 50.40Q47.76 51.84 52.32 59.28L52.32 59.28Q69.36 58.32 114.24 50.64L114.24 50.64Q119.04 49.68 122.64 49.20L122.64 49.20Q126.96 48.48 170.16 42.72L170.16 42.72Q172.80 42.24 174.24 42.24L174.24 42.24Q182.16 42.24 192.72 51.36L192.72 51.36Q198.72 56.64 201.36 58.32L201.36 58.32ZM174 94.56L174 94.56L171.60 96.00Q121.44 99.36 96.72 103.20L96.72 103.20L83.04 125.28Q86.40 126.00 89.28 128.40L89.28 128.40Q120.96 119.76 132.96 114.72L132.96 114.72Q147.36 114.72 154.32 124.08L154.32 124.08L150.48 135.36L150.48 136.80Q149.76 149.76 153.36 184.08L153.36 184.08Q154.32 194.88 154.80 202.08L154.80 202.08Q155.52 208.32 149.28 220.32L149.28 220.32Q147.60 223.92 146.16 226.08L146.16 226.08Q140.88 233.28 130.32 221.28L130.32 221.28Q124.56 214.80 124.08 214.32L124.08 214.32L119.28 210.24Q118.08 209.04 118.08 207.84L118.08 207.84L119.04 206.88L131.04 208.80Q136.08 209.04 138 205.20L138 205.20Q139.20 192.00 138.48 162.48L138.48 162.48Q138 135.84 136.08 129.60L136.08 129.60Q134.64 125.76 130.80 125.76L130.80 125.76Q115.68 125.76 93.84 133.68L93.84 133.68Q92.16 134.40 90.48 134.88L90.48 134.88L89.52 151.68L106.32 146.40Q121.68 142.80 126.24 150.24L126.24 150.24Q126.24 152.16 123.60 152.64L123.60 152.64L89.52 156.96L88.56 172.56L110.64 167.28Q124.32 165.12 128.64 171.84L128.64 171.84Q128.64 174.00 126.72 174.72L126.72 174.72Q119.52 176.64 88.56 178.80L88.56 178.80L86.88 198.96Q84.24 216.00 77.04 216.00L77.04 216.00Q70.80 208.56 70.80 201.60L70.80 201.60Q70.80 199.20 71.52 196.80L71.52 196.80Q78.72 173.28 79.68 167.04L79.68 167.04Q81.12 156.72 79.92 146.40L79.92 146.40Q78.72 138.24 77.52 134.88L77.52 134.88Q56.40 166.32 24.48 184.56L24.48 184.56Q22.08 186.00 19.68 187.20L19.68 187.20L18 186.72L50.64 152.16Q60.24 141.60 66.72 131.76L66.72 131.76Q79.92 110.88 82.08 106.80L82.08 106.80Q78.96 107.04 62.40 111.36L62.40 111.36Q46.32 115.44 40.08 109.20L40.08 109.20Q39.60 108.72 39.36 108.24L39.36 108.24Q39.36 106.08 41.76 105.60L41.76 105.60L85.92 97.92Q92.64 80.40 92.40 72.24L92.40 72.24Q92.40 68.64 91.44 65.28L91.44 65.28Q96 62.64 102 64.80L102 64.80Q103.92 65.76 105.84 66.96L105.84 66.96Q112.80 71.76 112.32 73.68L112.32 73.68L108 81.12L100.80 94.56Q121.92 92.88 144 85.68L144 85.68Q150.96 83.28 154.32 83.28L154.32 83.28Q164.88 83.28 170.88 88.32L170.88 88.32Q174.24 90.96 174 94.56Z" stroke="#000" fill="black" /></svg>