<svg width="240" height="240" version="1.1" xmlns="http://www.w3.org/2000/svg" xmlns:xlink="http://www.w3.org/1999/xlink"><path d="M127.92 44.19L127.92 44.19Q110.16 32.67 108.48 31.47Q106.80 30.27 105.36 28.83L105.36 28.83Q105.36 25.95 106.32 25.23L106.32 25.23Q111.60 24.03 124.08 28.11L124.08 28.11Q128.16 29.55 130.32 30.75L130.32 30.75Q134.64 36.27 134.64 41.07L134.64 41.07L133.92 43.47Q132.72 44.91 129.36 44.19L129.36 44.19Q128.40 44.19 127.92 44.19ZM172.32 140.91L172.32 140.91L168.96 140.19L155.28 127.95L152.88 125.07L153.12 122.91Q174.24 124.59 174.24 137.07L174.24 137.07Q174.24 139.95 172.32 140.91ZM180.24 132.03L180.24 132.03L177.60 132.03L177.60 129.87L184.56 117.87Q185.28 116.43 185.52 115.23L185.52 115.23L184.08 113.79L170.40 113.79Q168.96 113.79 128.40 120.99L128.40 120.99Q125.28 121.47 122.40 121.95L122.40 121.95Q106.08 124.35 95.52 127.23L95.52 127.23L83.04 130.83L82.56 130.83Q77.52 131.31 73.20 128.91L73.20 128.91L69.60 126.27L68.64 125.31Q69.60 123.39 94.32 120.27L94.32 120.27L183.36 105.63Q186.72 105.15 187.20 105.15L187.20 105.15Q193.92 105.15 204.72 115.23L204.72 115.23L208.56 119.55Q210.24 121.71 209.04 122.67L209.04 122.67Q208.80 123.15 208.08 123.39L208.08 123.39L201.36 124.83Q188.40 127.71 180.24 132.03ZM134.40 142.35L134.40 142.35Q133.68 143.31 130.56 143.31L130.56 143.31Q127.20 141.15 117.36 132.03L117.36 132.03L115.68 130.59Q115.68 125.31 125.52 129.63L125.52 129.63Q132.72 132.51 133.92 135.15L133.92 135.15Q134.40 136.11 134.40 142.35ZM171.12 153.63L171.12 153.63Q159.12 161.79 135.60 162.03L135.60 162.03Q114.48 162.03 105.36 152.19L105.36 152.19Q102.96 149.31 100.80 145.47L100.80 145.47Q97.68 139.95 97.68 136.11L97.68 136.11Q101.52 136.11 104.16 140.91L104.16 140.91L106.56 144.99Q114 154.59 132 154.59L132 154.59Q144.24 154.59 150.24 152.19L150.24 152.19Q152.88 150.75 147.84 139.47L147.84 139.47Q145.92 135.39 145.68 134.43L145.68 134.43L146.88 134.43Q150.72 137.79 165.36 146.67L165.36 146.67Q168.24 148.35 170.40 149.79L170.40 149.79Q171.84 150.75 171.36 152.43L171.36 152.43Q171.36 152.91 171.12 153.63ZM176.88 78.27L176.88 78.27Q171.36 80.91 164.88 91.95L164.88 91.95Q168.72 94.35 168.96 97.23L168.96 97.23L167.52 98.43L120.72 103.47Q117.60 103.95 114.72 104.43L114.72 104.43L95.28 108.99Q92.64 109.23 90.24 109.23L90.24 109.23Q87.12 109.23 83.76 105.63L83.76 105.63Q83.76 103.71 84.48 102.99L84.48 102.99L105.36 100.59Q105.36 99.39 103.44 85.71L103.44 85.71Q103.20 84.27 103.20 83.07L103.20 83.07L90.48 84.03Q85.20 83.55 83.04 80.43L83.04 80.43Q83.04 79.71 84.72 78.51L84.72 78.51L101.76 77.31Q101.76 76.11 99.12 70.35L99.12 70.35Q98.16 68.19 98.16 66.27L98.16 66.27Q103.44 64.83 108.48 68.67L108.48 68.67L110.88 71.07Q111.84 72.99 111.84 75.15L111.84 75.15Q114.24 75.15 126.24 72.51L126.24 72.51Q128.64 72.03 130.56 71.79L130.56 71.79Q131.52 67.71 130.32 63.63L130.32 63.63Q129.84 61.47 128.64 59.55L128.64 59.55Q122.88 59.55 102.48 63.39L102.48 63.39Q85.92 66.27 74.88 63.63L74.88 63.63Q71.76 69.87 70.56 86.43L70.56 86.43Q70.08 91.47 69.60 94.59L69.60 94.59Q60.72 151.23 42.72 182.67L42.72 182.67Q31.20 202.59 14.88 217.47L14.88 217.47L11.28 218.19L11.28 215.55Q49.20 162.99 56.64 103.23L56.64 103.23Q57.36 98.91 57.60 94.35L57.60 94.35Q59.52 73.71 59.28 68.19L59.28 68.19Q58.56 59.31 54.96 53.55L54.96 53.55Q54.24 45.87 67.68 54.27L67.68 54.27Q71.52 56.67 72.96 58.11L72.96 58.11Q105.84 54.75 132.72 49.23L132.72 49.23L156.72 43.23Q158.40 42.75 160.08 42.75L160.08 42.75Q164.64 42.27 168.48 43.71L168.48 43.71Q171.60 44.91 173.52 46.83L173.52 46.83Q173.52 50.19 168.96 51.63L168.96 51.63Q164.40 53.31 143.52 56.91L143.52 56.91L135.84 58.35Q142.56 62.19 144 64.35L144 64.35Q144 65.55 142.32 68.19L142.32 68.19Q143.76 68.19 155.04 64.83L155.04 64.83Q159.36 63.63 162.72 63.63L162.72 63.63Q173.76 68.67 176.16 71.07L176.16 71.07Q180 74.91 176.88 78.27ZM158.40 74.43L158.40 74.43Q153.36 72.27 143.52 75.15L143.52 75.15Q141.84 75.63 140.88 75.87L140.88 75.87L137.28 93.87L155.76 89.55Q158.40 78.27 158.40 74.43ZM129.60 95.79L130.32 77.55L111.84 81.63L112.56 98.91L112.56 99.15L129.60 95.79ZM209.04 228.03L209.04 228.03Q196.08 233.07 180 234.99L180 234.99L174.48 235.23Q164.64 234.75 143.04 216.03L143.04 216.03L136.08 210.03Q117.36 225.63 92.64 228.51L92.64 228.51Q87.12 229.23 81.84 228.99L81.84 228.99Q78 228.99 77.04 226.83L77.04 226.83Q106.08 220.11 118.80 212.43L118.80 212.43Q124.80 208.59 129.60 204.03L129.60 204.03Q115.44 191.07 104.40 185.07L104.40 185.07Q91.44 198.51 72.96 210.75L72.96 210.75Q52.56 223.95 44.16 220.59L44.16 220.59Q86.16 196.11 97.68 174.51L97.68 174.51Q98.64 172.83 100.80 162.99L100.80 162.99Q105.84 161.07 112.08 167.07L112.08 167.07Q115.44 170.43 115.44 173.55L115.44 173.55Q126.96 173.55 138.96 170.19L138.96 170.19Q150.24 167.31 154.56 168.99L154.56 168.99Q158.40 170.19 163.20 174.99L163.20 174.99Q163.20 177.87 158.64 181.23L158.64 181.23L156.48 183.15Q155.04 184.83 144.72 199.95L144.72 199.95Q143.28 202.11 142.08 203.79L142.08 203.79Q156.24 214.59 179.52 219.63L179.52 219.63Q199.68 224.19 204.48 225.39L204.48 225.39Q208.56 226.59 209.04 228.03ZM139.68 176.43L139.68 176.43Q121.44 182.19 112.56 178.35L112.56 178.35L111.84 177.87L107.28 182.43Q114.96 182.43 123.84 190.11L123.84 190.11Q130.08 195.63 133.20 197.31L133.20 197.31L134.40 197.31Q147.60 177.39 139.68 176.43ZM86.40 138.99L86.40 138.99Q86.40 157.47 81.36 164.67L81.36 164.67Q79.44 167.31 76.80 169.23L76.80 169.23Q75.36 170.19 73.68 171.15L73.68 171.15Q71.28 171.15 69.36 167.07L69.36 167.07L69.36 160.35L79.92 143.07Q80.40 142.11 80.88 141.39L80.88 141.39L82.32 138.27Q83.28 137.31 85.20 137.79L85.20 137.79Q86.16 138.27 86.40 138.99Z" stroke="#000" fill="black" /></svg>