<svg width="240" height="240" version="1.1" xmlns="http://www.w3.org/2000/svg" xmlns:xlink="http://www.w3.org/1999/xlink"><path d="M186.96 89.72L186.72 90.68Q177.84 97.88 172.08 114.92L172.08 114.92Q166.56 131.48 162.48 137.24L162.48 137.24Q158.64 142.76 154.56 141.32L154.56 141.32Q152.64 140.12 147.12 131.72L147.12 131.72L97.92 136.76Q72.48 139.64 66.24 139.64L66.24 139.64Q65.04 144.20 64.08 145.16L64.08 145.16Q55.44 144.20 51.60 131.96L51.60 131.96L51.12 130.52Q44.64 107.00 40.32 98.84L40.32 98.84Q37.44 93.56 33.84 89.00L33.84 89.00L35.28 86.84Q42.96 87.32 47.28 89.48L47.28 89.48Q62.64 88.04 81.84 84.92L81.84 84.92L80.40 67.88Q71.04 69.08 65.04 67.40L65.04 67.40L60.48 65.24Q58.56 63.80 57.36 61.88L57.36 61.88L59.28 60.68L78 59.48Q77.28 54.68 71.04 41.48L71.04 41.48Q70.80 40.52 70.32 39.80L70.32 39.80Q70.32 37.16 72.72 35.96L72.72 35.96Q78.96 36.20 90.24 43.16L90.24 43.16Q92.16 46.28 91.68 54.92L91.68 54.92L91.44 57.32Q98.40 56.84 118.56 53.24L118.56 53.24Q120.48 44.84 116.64 35.24L116.64 35.24Q115.20 32.12 113.28 29.00L113.28 29.00Q113.04 20.60 126.72 27.80L126.72 27.80Q134.40 32.12 137.04 35.48L137.04 35.48Q136.80 36.68 134.16 44.84L134.16 44.84Q133.44 47.24 133.20 49.16L133.20 49.16L150.24 46.04Q158.16 45.56 162.48 50.60L162.48 50.60Q162.48 52.76 161.28 53.96L161.28 53.96L131.28 60.44L129.36 77.96Q132.96 77.72 152.40 74.12L152.40 74.12Q159.60 72.68 164.88 72.44L164.88 72.44Q171.36 72.20 181.68 81.56L181.68 81.56Q181.92 82.04 182.40 82.52L182.40 82.52Q187.20 86.84 186.96 89.72L186.96 89.72ZM163.92 88.76L163.92 88.76L162 85.40Q153.12 81.80 134.64 84.20L134.64 84.20Q130.56 84.68 128.88 84.92L128.88 84.92L127.20 100.04Q132 98.60 140.16 100.28L140.16 100.28Q149.28 102.44 144.24 106.76L144.24 106.76L127.20 108.92Q124.80 113.72 124.32 125.00L124.32 125.00L140.16 122.84L140.88 122.84L150.48 125.00L150.48 125.00Q153.60 125.00 163.20 90.92L163.20 90.92Q163.68 89.48 163.92 88.76ZM117.84 79.16L118.56 62.60Q115.20 62.84 91.44 66.44L91.44 66.44L91.92 83.24Q115.44 79.40 117.84 79.16L117.84 79.16ZM116.40 101.96L117.60 86.60L92.16 90.44L93.36 106.28L116.40 101.96ZM114.96 111.08L114.96 110.84L94.08 114.20L95.04 129.56L114 126.44L114.96 111.08ZM85.20 131.00L85.20 131.00L83.76 115.64Q77.04 117.32 72.72 115.88L72.72 115.88Q69.60 114.92 68.16 112.04L68.16 112.04Q68.64 110.60 83.76 108.44L83.76 108.44L82.32 92.12Q78.48 91.88 61.44 96.20L61.44 96.20L54.48 97.64L62.40 126.92L64.80 133.64Q68.64 132.68 85.20 131.00ZM152.64 157.16L152.64 157.16L148.80 166.28Q148.56 167.24 148.56 168.20L148.56 168.20Q147.84 175.16 150 197.72L150 197.72Q150.96 208.52 150.24 215.48L150.24 215.48Q150 222.20 145.20 230.36L145.20 230.36Q142.32 235.40 139.92 235.40L139.92 235.40Q138 235.40 127.44 219.56L127.44 219.56Q125.76 217.16 125.28 216.44L125.28 216.44L79.68 218.60L79.44 218.60Q78.48 224.36 75.12 227.72L75.12 227.72Q72.72 227.48 69.84 222.92L69.84 222.92Q65.76 216.20 68.64 198.44L68.64 198.44Q70.32 188.84 70.32 185.24L70.32 185.24Q70.32 167.00 63.60 154.04L63.60 154.04Q66.72 150.20 76.08 156.68L76.08 156.68Q77.76 157.64 78.72 158.60L78.72 158.60Q109.44 153.32 120 149.96L120 149.96Q126 147.80 131.04 145.40L131.04 145.40Q137.76 145.40 147.12 151.64L147.12 151.64Q151.68 154.52 152.64 157.16ZM133.92 158.12L133.92 158.12Q131.04 156.44 126 156.68L126 156.68L80.40 165.56L80.40 184.28L100.80 179.96Q121.44 177.08 122.16 185.96L122.16 185.96L120.24 187.40L80.88 191.00L80.88 212.36Q111.84 205.16 126.48 207.80L126.48 207.80Q132 208.76 133.44 211.40L133.44 211.40Q136.80 201.08 136.56 177.32L136.56 177.32Q136.32 162.44 133.92 158.12Z" stroke="#000" fill="black" /></svg>